<svg xmlns="http://www.w3.org/2000/svg" width="214" height="45" viewBox="0 0 214 45" fill="none"><g clip-path="url(#clip0_12399_389)"><path d="M61.9698 18.2519C61.9698 8.176 53.8192 0 43.7747 0C36.3689 0 30.006 4.41888 27.1543 10.7804C24.324 7.51423 20.1317 5.44355 15.4924 5.44355C6.93755 5.4649 0 12.4241 0 20.9843C0 29.5446 6.93755 36.5251 15.4924 36.5251H43.9236C53.9043 36.4398 61.991 28.3065 61.991 18.2519H61.9698ZM15.4924 31.3378C9.78918 31.3378 5.17124 26.7054 5.17124 20.9843C5.17124 15.2633 9.78918 10.6309 15.4924 10.6309C20.4509 10.6309 24.5794 14.1319 25.5796 18.7856C25.7285 23.6954 27.7928 28.1357 31.07 31.3378H15.4924ZM43.7747 31.2951C37.3691 31.2951 32.0489 26.6414 30.9636 20.5147C30.9636 19.8102 30.8785 19.1271 30.7721 18.444C30.7721 18.38 30.7721 18.3159 30.7721 18.2306C30.7721 11.0365 36.603 5.18738 43.7747 5.18738C50.9463 5.18738 56.7772 11.0365 56.7772 18.2306C56.7772 25.4246 50.9463 31.2737 43.7747 31.2737V31.2951Z" fill="#8F0CF4"></path><path d="M78.4834 15.498C84.7187 15.498 89.6558 20.2158 89.6558 26.193C89.6558 32.1702 84.7187 36.888 78.4834 36.888C72.2481 36.888 67.3535 32.1276 67.3535 26.193C67.3535 20.2585 72.2907 15.498 78.4834 15.498ZM78.4834 32.0422C81.6755 32.0422 84.1228 29.4591 84.1228 26.193C84.1228 22.9269 81.6755 20.3439 78.4834 20.3439C75.2913 20.3439 72.844 22.9269 72.844 26.193C72.844 29.4591 75.3338 32.0422 78.4834 32.0422Z" fill="white"></path><path d="M101.679 36.888C99.317 36.888 97.1463 36.0981 95.4013 34.7533V44.9999H90.1875V16.0958H95.0395V17.953C96.8484 16.416 99.1467 15.498 101.679 15.498C107.51 15.498 112.171 20.2585 112.171 26.193C112.171 32.1276 107.51 36.888 101.679 36.888ZM100.998 20.3439C97.9124 20.3439 95.4013 22.8842 95.4013 26.193C95.4013 29.5018 97.9337 32.0422 100.998 32.0422C104.063 32.0422 106.68 29.5018 106.68 26.193C106.68 22.8842 104.148 20.3439 100.998 20.3439Z" fill="white"></path><path d="M113.597 30.5052C115.257 31.8073 116.874 32.4478 118.342 32.4478C119.811 32.4478 120.641 31.8073 120.641 30.6759C120.641 29.7367 120.045 29.1816 117.832 28.221L116.959 27.8581C113.363 26.3638 111.703 24.6133 111.703 21.8809C111.703 18.1665 114.703 15.498 119.151 15.498C121.471 15.498 124.003 16.2452 125.578 17.398L123.322 21.3258C122.066 20.4079 120.832 19.9383 119.449 19.9383C117.959 19.9383 117.087 20.536 117.087 21.5607C117.087 22.4359 117.768 23.0336 120.236 24.101L120.875 24.3785C124.62 26.0009 126.089 27.666 126.089 30.4411C126.089 34.2836 123.216 36.888 118.747 36.888C115.874 36.888 112.703 35.7779 111.043 34.1555L113.575 30.5052H113.597Z" fill="white"></path><path d="M125.514 16.0959H129.153V10.3535H134.366V16.0959H138.857V20.6429H134.366V36.2691H129.153V20.6429H125.514V16.0959Z" fill="white"></path><path d="M149.242 36.8881C142.687 36.8881 137.878 32.3839 137.878 26.2785C137.878 20.1732 142.624 15.5195 148.689 15.5195C154.754 15.5195 158.903 20.0665 158.903 26.0437C158.903 26.6414 158.861 27.3886 158.776 28.1358H143.581C144.092 30.5907 146.114 32.1704 149.114 32.1704C151.157 32.1704 152.626 31.4232 154.094 29.6728L158.244 32.7681C156.201 35.4152 152.987 36.8881 149.242 36.8881ZM153.349 23.973C153.03 21.6675 151.221 20.1305 148.646 20.1305C146.071 20.1305 144.39 21.7529 143.751 23.973H153.349Z" fill="white"></path><path d="M181.398 36.2903H176.46V34.5184C174.694 36.0128 172.396 36.888 169.906 36.888C164.096 36.888 159.457 32.1276 159.457 26.193C159.457 20.2585 164.118 15.498 169.906 15.498C172.396 15.498 174.673 16.3733 176.46 17.8676V16.0958H181.398V36.2903ZM170.587 32.0635C173.715 32.0635 176.184 29.5232 176.184 26.2144C176.184 22.9055 173.694 20.3652 170.587 20.3652C167.48 20.3652 164.947 22.9055 164.947 26.2144C164.947 29.5232 167.437 32.0635 170.587 32.0635Z" fill="white"></path><path d="M200.976 36.2899H195.762V24.4208C195.762 22.0512 194.145 20.2581 191.889 20.2581C189.633 20.2581 187.867 22.0299 187.867 24.25V36.2899H182.653V16.0954H187.505V17.5256C188.761 16.1807 190.697 15.4336 192.953 15.4336C195.592 15.4336 197.763 16.4583 199.189 18.2514C200.614 16.501 203.104 15.4336 205.849 15.4336C210.659 15.4336 213.979 18.7211 213.979 23.5029V36.2899H208.765V24.5275C208.765 21.9872 207.19 20.2581 204.892 20.2581C202.593 20.2581 200.955 22.0085 200.955 24.2927V36.2899H200.976Z" fill="white"></path></g><defs><clipPath id="clip0_12399_389"><rect width="214" height="45" fill="white"></rect></clipPath></defs></svg>